# xmcd CD database file
#
# Track frame offsets:
#	150
#	24006
#	41426
#	61874
#	83528
#	104476
#	129086
#	152357
#	188078
#	210062
#	226511
#	246504
#	263267
#	284579
#	301215
#	317745
#
# Disc length: 4777 seconds
#
# Revision: 0
# Processed by: cddbd v1.5PL3 Copyright (c) Steve Scherf et al.
# Submitted via: CDex 1.51
#
DISCID=b212a710
DTITLE=John Brim - Belgium Rhythm 'N' Blues Festival 2001 Live
DYEAR=2001
DGENRE=Blues
TTITLE0=Chicken Shack
TTITLE1=Why Do People Act Like That
TTITLE2=Honey Bee
TTITLE3=I'd like To Have A Girl Like You
TTITLE4=Anna Lee
TTITLE5=Must Have Been The Devil
TTITLE6=Shake Your Boogie
TTITLE7=D'Blues
TTITLE8=Movin Out
TTITLE9=Be Careful
TTITLE10=I Can't Quit You Babe
TTITLE11=You Put The Hurt On Me
TTITLE12=Some Day Baby 
TTITLE13=Tough Times
TTITLE14=Ice Cream Man
TTITLE15=Hey Baby Jump With Me
EXTD=YEAR: 2001
EXTT0=
EXTT1=
EXTT2=
EXTT3=
EXTT4=
EXTT5=
EXTT6=
EXTT7=
EXTT8=
EXTT9=
EXTT10=
EXTT11=
EXTT12=
EXTT13=
EXTT14=
EXTT15=
PLAYORDER=
